<svg fill="none" width="128" height="128" xmlns="http://www.w3.org/2000/svg"><path d="M576.414 91.59c-2.612-6.623-6.165-12.857-10.324-18.8.376-3.163 0-5.973-3.813-10.576-.835-2.006-1.593-3.73-2.244-5.398-.36-3.393.153-8.034.835-9.994-3.064-4.963-9.083-9.175-16.833-12.031 1.287-10.124 3.982-20.095 7.283-27.922-4.105 1.785-9.305 5.124-13.876 9.39-.429-5.875-1.004-11.695-1.433-15.983-.903.827-16.817 17.828-16.817 17.828L507.812 0l-7.26 20.18s-15.071-10.5-19.834-13.533c.429 6.058 1.187 11.732 1.685 15.914-2.811-1.693-10.806-5.001-15.569-5.223 4.342 6.08 10.782 16.097 13.049 25.356-13.149 7.987-23.311 17.23-34.882 37.93 1.6.108 4.87.315 7.788.62-5.613 7.222-13.8 25.326-12.69 39.563 2.03-.674 8.899-2.819 12.69-4.09-3.017 12.491-1.034 38 8.447 47.764 5.223-2.413 14.872-11.763 20.386-19.651.865 15.569-4.166 30.318-5.108 32.003 30.992 20.11 62.39-.13 62.39-.13s1.517 6.992 2.167 9.297c8.57-2.137 26.605-13.494 33.168-39.225 1.516 1.731 4.526 5.062 5.835 6.969 11.372-29.078 4.909-48.56-3.668-62.145l.008-.008z" fill="#fff" style="display:inline" transform="translate(-289.091) scale(.68817)"/><path d="M474.301 22.277c7.505 3.439 12.321 7.781 13.194 8.44-.398-1.945-1.876-11.265-2.726-17.07a6695.175 6695.175 0 0 0 17.859 12.375c1.363-4.196 6.073-17.89 6.073-17.89s8.516 13.793 9.971 16.037c1.776-1.861 11.962-13.187 14.596-16.06.444 6.518 1.049 15.845 1.195 17.247.52-.697 4.418-6.157 10.951-11.196-2.834 5.575-4.182 13.279-4.787 19.467a74.81 74.81 0 0 0-20.202-2.765c-13.424 0-26.03 3.538-36.927 9.726-1.983-5.966-5.085-13.402-9.197-18.31zm102.756 117.621-5.912-6.555c-1.693 17.705-10.354 32.731-26.275 43.207l-2.428-9.55c-13.516 9.772-36.713 16.098-56.631 4.84 2.466-12.628 4.663-25.409-.046-40.726-11.028 17.086-20.8 23.779-20.8 23.779-7.443-12.514-6.777-37.624-4.556-45.022l-12.406 3.844c0-8.431 6.08-26.344 14.872-36.391l-7.75-1.24a72.894 72.894 0 0 1 22.737-27.01h.007c-2.887 4.563-2.925 15.813 5.537 20.094-3.599-6.303-4.028-14.083-.283-18.12 3.76-4.058 10.07-2.664 14.098.491-1.194-3.515-4.709-7.934-9.978-8.24 9.948-5.116 21.228-8.003 33.182-8.003 2.236 0 4.442.1 6.625.299 3.476 1.401 8.577 6.295 10.958 9.335 0 0 .169-3.592-1.83-7.926 12.942 3.14 19.107 8.409 21.695 10.959.529 5.582 2.206 8.944 4.419 14.26-4.189-4.703-14.726-12.27-19.75-14.084 0 0-.414 4.847-2.144 7.183-10.009-7.23-14.926-9.036-14.926-9.036-10.997 1.57-18.058 5.812-21.894 9.143l3.346 2.85c-6.624 2.036-10.928 7.734-10.928 7.734.046.1 5.92.934 5.92.934s-.598 6.9 8.041 11.227c7.39 3.699 18.035-.888 28.051 3.124-6.593-7.604-11.127-11.004-11.127-11.004s-2.619-.544-4.465-.536c-2.297.015-5.72.474-9.488-.996-1.792-.697-3.89-1.937-5.529-2.971 0 0 4.625-4.748 11.372-5.797 0 0 6.088 1.715 10.921 5.284 3.208-3.125 6.555-3.025 6.555-3.025s-3.316 3.101-2.313 6.854c4.825 4.304 10.055 10.453 10.055 10.453 5.33-2.925 16.909-2.252 19.291.505-3.017-3.905-7.359-7.168-10.721-9.963-.406-1.462-4.074-6.578-4.695-7.045 0 0 3.492 1.08 6.602 3.867.903-1.271 2.573-2.573 4.855-3.147 2.351 1.968 2.757 4.985 2.695 5.49-1.064 1.257-2.09 1.777-2.09 1.777l5.636 6.104.567-4.38c12.996 18.555 20.087 40.059 10.966 67.1zM552.543 99.9l-.015-9.596s-4.281-1.378-8.868-4.931c-9.19 1.393-20.332 10.637-20.332 10.637s3.768 7.137 7.872 14.833c7.237.996 17.89-8.125 21.328-10.95zm9.251 17.407s-.735-3.967-3.882-7.681l-7.168.176s-9.68 8.317-15.577 8.508c0 0 3.255 6.05 4.886 9.205 3.255-.704 8.968-3.278 11.265-5.943 0 0 1.524 4.909 1.233 10.691 3.232-1.884 7.689-6.953 9.251-14.964zm2.949-31.544c-3.615 3.048-6.686 4.733-6.686 4.733l.031 9.641c2.596 2.887 5.146 5.277 7.061 9.634 3.622-6.517 2.933-16.12-.406-24.008z" fill="#37003c" style="display:inline" transform="translate(-289.091) scale(.68817)"/></svg>