<?xml version="1.0" encoding="iso-8859-1"?>
<!-- Uploaded to: SVG Repo, www.svgrepo.com, Generator: SVG Repo Mixer Tools -->
<svg fill="#000000" height="800px" width="800px" version="1.1" id="Layer_1" xmlns="http://www.w3.org/2000/svg" xmlns:xlink="http://www.w3.org/1999/xlink" 
	 viewBox="0 0 512 512" xml:space="preserve">
<g>
	<g>
		<path d="M501.801,100.738H10.199C4.566,100.738,0,105.304,0,110.937v290.126c0,5.633,4.566,10.199,10.199,10.199h491.602
			c5.633,0,10.199-4.566,10.199-10.199V110.937C512,105.304,507.434,100.738,501.801,100.738z M266.199,219.674
			c15.867,4.462,27.538,19.051,27.538,36.326c0,17.274-11.671,31.863-27.538,36.326V219.674z M20.398,206.74h43.388v98.519H20.398
			V206.74z M20.398,325.657h53.588c5.633,0,10.199-4.566,10.199-10.199V196.541c0-5.633-4.566-10.199-10.199-10.199H20.398v-15.794
			h80.574v170.904H20.398V325.657z M491.602,305.259h-43.388v-98.519h43.388V305.259z M491.602,186.342h-53.588
			c-5.633,0-10.199,4.566-10.199,10.199v118.918c0,5.633,4.566,10.199,10.199,10.199h53.588v15.794h-80.574V170.548h80.574V186.342z
			 M491.602,150.148h-90.773c-5.633,0-10.199,4.566-10.199,10.199V351.65c0,5.633,4.566,10.199,10.199,10.199h90.773v29.013H20.398
			V361.85h90.773c5.633,0,10.199-4.566,10.199-10.199V160.348c0-5.633-4.566-10.199-10.199-10.199H20.398v-29.013h225.402v77.642
			c-27.206,4.837-47.936,28.646-47.936,57.222s20.73,52.384,47.936,57.222v22.331c0,5.633,4.566,10.199,10.199,10.199
			c5.633,0,10.199-4.566,10.199-10.199v-22.332c27.206-4.837,47.936-28.646,47.936-57.222c0-28.575-20.73-52.384-47.936-57.222
			v-77.642h225.402V150.148z M245.801,219.674v72.651c-15.867-4.462-27.538-19.051-27.538-36.326S229.934,224.136,245.801,219.674z"
			/>
	</g>
</g>
<g>
	<g>
		<path d="M256,355.952c-5.633,0-10.199,4.566-10.199,10.199v2.04c0,5.633,4.566,10.199,10.199,10.199
			c5.633,0,10.199-4.566,10.199-10.199v-2.04C266.199,360.518,261.633,355.952,256,355.952z"/>
	</g>
</g>
</svg>