<svg xmlns="http://www.w3.org/2000/svg" width="24" height="24" viewBox="0 0 24 24" fill="none"><script xmlns=""/>
<path d="M12.6365 7.50688L16.8323 10.5552C17.0502 10.7136 17.1405 10.9942 17.0573 11.2502L15.4547 16.1827C15.3715 16.4387 15.1331 16.6122 14.8637 16.6122H9.67744C9.40832 16.6122 9.1696 16.4387 9.0864 16.1827L7.48384 11.2502C7.40064 10.9939 7.49184 10.7136 7.70976 10.5552L11.9056 7.50688C12.1235 7.34848 12.4186 7.34848 12.6365 7.50688Z" fill="#37003C"/>
<path fill-rule="evenodd" clip-rule="evenodd" d="M0 12C0 5.37248 5.37248 0 12 0C18.6275 0 24 5.37248 24 12C24 18.6275 18.6275 24 12 24C5.37248 24 0 18.6275 0 12ZM18.2959 17.7955C18.8803 17.8125 19.4647 17.8294 20.049 17.8464C20.1334 17.8358 21.6694 17.6173 22.3037 16.2045C22.8474 14.993 22.2909 13.8781 22.2179 13.7382L19.0806 10.0877L20.1837 5.81504C20.192 5.73024 20.3203 4.18496 19.0832 3.25312C18.0224 2.4544 16.8118 2.74976 16.6592 2.78976L12.2019 5.14848L8.14048 2.90784C8.06048 2.8784 6.59552 2.36992 5.38528 3.336C4.34752 4.16448 4.33248 5.41056 4.33312 5.56832C4.45816 6.23718 4.58312 6.90612 4.70809 7.57506C4.8332 8.24484 4.95832 8.91462 5.08352 9.58432C4.40289 10.2624 3.72212 10.9403 3.0414 11.6182C2.70086 11.9573 2.36033 12.2964 2.01984 12.6355C1.96928 12.704 1.07136 13.9686 1.6608 15.4006C2.16608 16.6288 3.3584 16.9917 3.51008 17.0349C4.2153 17.1047 4.92045 17.1744 5.62557 17.2441C6.4079 17.3214 7.19019 17.3987 7.97248 17.4762L9.71776 21.5962C9.76256 21.6685 10.6003 22.9738 12.1488 22.9616C13.4768 22.9514 14.2582 21.9808 14.3552 21.8563C14.8981 20.8404 15.4413 19.8247 15.9844 18.8088C16.174 18.4542 16.3637 18.0996 16.5533 17.745C17.1341 17.7619 17.715 17.7787 18.2959 17.7955Z" fill="#37003C"/>
<script xmlns=""/></svg>